# xmcd CD database file
#
# Track frame offsets:
#	150
#	11285
#	22394
#	34083
#	46211
#	57365
#	68332
#	81113
#	91319
#	101927
#	112209
#	123002
#	135564
#	145431
#	158048
#	168631
#	179791
#	190297
#	202841
#	213038
#	224471
#	236400
#	249637
#	260602
#	272841
#	285359
#	297594
#	310132
#	320934
#
# Disc length: 4479 seconds
#
# Revision: 0
# Processed by: cddbd v1.5.2PL0 Copyright (c) Steve Scherf et al.
# Submitted via: CDex 1.40PlusFr
#
DISCID=ba117d1d
DTITLE=Lightnin' Hopkins - Texas Blues Giant Volume 3
DYEAR=2010
DGENRE=Blues
TTITLE0=Leavin' Blues
TTITLE1=Moanin' Blues
TTITLE2=Lightnin's Boogie
TTITLE3=Don't Think 'Cause You're Pretty
TTITLE4=Blues Is A Mighty Bad Feeling
TTITLE5=Lightnin's Special
TTITLE6=Life I Used To Live
TTITLE7=Sick Feelin' Blues
TTITLE8=Let's Move
TTITLE9=Early Mornin' Boogie
TTITLE10=Nothin' But The Blues
TTITLE11=Evil Hearted Woman
TTITLE12=They Wonder Who I Am
TTITLE13=My Baby's Gone
TTITLE14=Don't Need No Job
TTITLE15=Blues For My Cookie
TTITLE16=Had A Gal Called Sal
TTITLE17=Lonesome In Your Home
TTITLE18=Hopkins' Sky Hop
TTITLE19=I Love You Baby
TTITLE20=Grandma's Boogie
TTITLE21=That's Alright Baby
TTITLE22=Finally Met My Baby
TTITLE23=Shine On Moon
TTITLE24=Sittin' DownThinkin'
TTITLE25=Remember Me
TTITLE26=Please Don't Go Baby
TTITLE27=My Little Kewpie Doll
TTITLE28=Lightnin' Don't Feel Well
EXTD=YEAR: 2010 ID3G: 0
EXTT0=
EXTT1=
EXTT2=
EXTT3=
EXTT4=
EXTT5=
EXTT6=
EXTT7=
EXTT8=
EXTT9=
EXTT10=
EXTT11=
EXTT12=
EXTT13=
EXTT14=
EXTT15=
EXTT16=
EXTT17=
EXTT18=
EXTT19=
EXTT20=
EXTT21=
EXTT22=
EXTT23=
EXTT24=
EXTT25=
EXTT26=
EXTT27=
EXTT28=
PLAYORDER=
